<svg width="24" height="24" viewBox="0 0 24 24" fill="none" xmlns="http://www.w3.org/2000/svg">
<g clip-path="url(#clip0_1_270)">
<g filter="url(#filter0_d_1_270)">
<path d="M12 9C10.374 9 9 10.374 9 12C9 13.626 10.374 15 12 15C13.626 15 15 13.626 15 12C15 10.374 13.626 9 12 9Z" fill="white"/>
</g>
<g filter="url(#filter1_d_1_270)">
<path d="M20 5H17.414L14.707 2.293C14.6143 2.19996 14.5041 2.12617 14.3828 2.07589C14.2614 2.0256 14.1313 1.99981 14 2H10C9.86866 1.99981 9.73857 2.0256 9.61724 2.07589C9.4959 2.12617 9.38571 2.19996 9.293 2.293L6.586 5H4C2.897 5 2 5.897 2 7V18C2 19.103 2.897 20 4 20H20C21.103 20 22 19.103 22 18V7C22 5.897 21.103 5 20 5ZM12 17C9.29 17 7 14.71 7 12C7 9.29 9.29 7 12 7C14.71 7 17 9.29 17 12C17 14.71 14.71 17 12 17Z" fill="white"/>
</g>
</g>
<defs>
<filter id="filter0_d_1_270" x="5" y="5" width="14" height="14" filterUnits="userSpaceOnUse" color-interpolation-filters="sRGB">
<feFlood flood-opacity="0" result="BackgroundImageFix"/>
<feColorMatrix in="SourceAlpha" type="matrix" values="0 0 0 0 0 0 0 0 0 0 0 0 0 0 0 0 0 0 127 0" result="hardAlpha"/>
<feOffset/>
<feGaussianBlur stdDeviation="2"/>
<feComposite in2="hardAlpha" operator="out"/>
<feColorMatrix type="matrix" values="0 0 0 0 1 0 0 0 0 1 0 0 0 0 1 0 0 0 0.5 0"/>
<feBlend mode="normal" in2="BackgroundImageFix" result="effect1_dropShadow_1_270"/>
<feBlend mode="normal" in="SourceGraphic" in2="effect1_dropShadow_1_270" result="shape"/>
</filter>
<filter id="filter1_d_1_270" x="-2" y="-2" width="28" height="26" filterUnits="userSpaceOnUse" color-interpolation-filters="sRGB">
<feFlood flood-opacity="0" result="BackgroundImageFix"/>
<feColorMatrix in="SourceAlpha" type="matrix" values="0 0 0 0 0 0 0 0 0 0 0 0 0 0 0 0 0 0 127 0" result="hardAlpha"/>
<feOffset/>
<feGaussianBlur stdDeviation="2"/>
<feComposite in2="hardAlpha" operator="out"/>
<feColorMatrix type="matrix" values="0 0 0 0 1 0 0 0 0 1 0 0 0 0 1 0 0 0 0.5 0"/>
<feBlend mode="normal" in2="BackgroundImageFix" result="effect1_dropShadow_1_270"/>
<feBlend mode="normal" in="SourceGraphic" in2="effect1_dropShadow_1_270" result="shape"/>
</filter>
<clipPath id="clip0_1_270">
<rect width="24" height="24" fill="white"/>
</clipPath>
</defs>
</svg>
